<?xml version="1.0" encoding="utf-8"?>
<!-- Generator: Adobe Illustrator 25.4.1, SVG Export Plug-In . SVG Version: 6.00 Build 0)  -->
<svg version="1.1" id="Layer_1" xmlns="http://www.w3.org/2000/svg" xmlns:xlink="http://www.w3.org/1999/xlink" x="0px" y="0px"
	 viewBox="0 0 81.9 99.1" style="enable-background:new 0 0 81.9 99.1;" xml:space="preserve">
<style type="text/css">
	.st0{fill:#1C1C1C;}
</style>
<g>
	<path id="path3016" class="st0" d="M26.1,3.7c2.3,0,5.6,0,7.9,0c0,1.1,0,2.3,0,4.5c-2.3,0-5.6,0-7.9,0C26.1,6,26.1,4.9,26.1,3.7z"
		/>
	<path id="path3018" class="st0" d="M21.6,7.1c1.1,0,2.3,0,4.5,0c0,14.7,0,30.5,0,45.2c-1.1,0-2.3,0-4.5,0c0-1.1,0-2.3,0-4.5
		c-1.1,0-2.3,0-4.5,0c0-1.1,0-2.3,0-4.5c1.1,0,2.3,0,4.5,0C21.6,32,21.6,19.5,21.6,7.1L21.6,7.1z"/>
	<path id="path3020" class="st0" d="M34,7.1c1.1,0,2.3,0,4.5,0c0,5.6,0,11.3,0,16.9c2.3,0,5.6,0,7.9,0c0,1.1,0,2.3,0,4.5
		c4.5,0,7.9,0,12.4,0c0,1.1,0,2.3,0,4.5c2.3,0,5.6,0,7.9,0c0,1.1,0,2.3,0,4.5c1.1,0,2.3,0,4.5,0c0,1.1,0,2.3,0,4.5
		c1.1,0,2.3,0,4.5,0c0,5.6,0,10.2,0,15.8c0,4.5,0,9,0,13.6c-1.1,0-2.3,0-4.5,0c0,4.5,0,7.9,0,12.4c-1.1,0-2.3,0-4.5,0
		c0-4.5,0-7.9,0-12.4c1.1,0,2.3,0,4.5,0c0-10.2,0-19.2,0-29.4c-1.1,0-2.3,0-4.5,0c0-1.1,0-2.3,0-4.5c-1.1,0-2.3,0-4.5,0
		c0,4.5,0,7.9,0,12.4h-3.4c0-5.6,0-11.3,0-16.9c-2.3,0-5.6,0-7.9,0c0,4.5,0,7.9,0,12.4c-1.1,0-2.3,0-4.5,0c0-5.6,0-11.3,0-16.9
		c-2.3-1.1-5.6-1.1-7.9-1.1c0,5.6,0,11.3,0,16.9c-1.1,0-2.3,0-4.5,0C34,32,34,19.5,34,7.1L34,7.1z"/>
	<path id="path3026" class="st0" d="M5.7,41c4.5,0,7.9,0,12.4,0c0,1.1,0,2.3,0,4.5c-2.3,0-5.6,0-7.9,0c0,2.3,0,5.6,0,7.9
		c-1.1,0-2.3,0-4.5,0C5.7,48.9,5.7,44.4,5.7,41z"/>
	<path id="path3030" class="st0" d="M9.1,53.4c1.1,0,2.3,0,4.5,0c0,1.1,0,2.3,0,4.5c1.1,0,2.3,0,4.5,0c0,2.3,0,5.6,0,7.9
		c1.1,0,2.3,0,4.5,0c0,2.3,0,5.6,0,7.9c-1.1,0-2.3,0-4.5,0c0-2.3,0-5.6,0-7.9c-1.1,0-2.3,0-4.5,0c0-2.3,0-5.6,0-7.9
		c-1.1,0-2.3,0-4.5,0C9.1,55.7,9.1,54.6,9.1,53.4L9.1,53.4z"/>
	<path id="path3038" class="st0" d="M21.6,73.8c1.1,0,2.3,0,4.5,0c0,2.3,0,5.6,0,7.9c1.1,0,2.3,0,4.5,0c0,2.3,0,5.6,0,7.9
		c11.3,0,21.5,0,32.8,0c0-2.3,0-5.6,0-7.9c1.1,0,2.3,0,4.5,0c0,4.5,0,7.9,0,12.4c-6.8,0-13.6,0-21.5,0c-6.8,0-13.6,0-20.3,0
		c0-4.5,0-7.9,0-12.4c-1.1,0-2.3,0-4.5,0C21.6,79.4,21.6,76,21.6,73.8L21.6,73.8z"/>
</g>
</svg>
